<?xml version="1.0" standalone="no"?>
<!DOCTYPE svg PUBLIC "-//W3C//DTD SVG 20010904//EN"
 "http://www.w3.org/TR/2001/REC-SVG-20010904/DTD/svg10.dtd">
<svg version="1.0" xmlns="http://www.w3.org/2000/svg"
 width="400.000000pt" height="400.000000pt" viewBox="0 0 400.000000 400.000000"
 preserveAspectRatio="xMidYMid meet">

<g transform="translate(0.000000,400.000000) scale(0.100000,-0.100000)"
fill="#000000" stroke="none">
<path d="M2080 3966 c-3 -3 -48 -10 -100 -16 -52 -6 -108 -15 -125 -20 -339
-101 -517 -224 -733 -505 -5 -5 -11 -17 -15 -25 -4 -8 -16 -28 -27 -45 -30
-46 -80 -156 -99 -215 -40 -131 -61 -262 -61 -375 1 -110 34 -296 66 -372 8
-17 14 -34 14 -38 0 -15 106 -222 120 -235 3 -3 27 -32 52 -65 68 -88 155
-174 228 -225 19 -13 37 -27 40 -30 9 -10 62 -42 127 -76 52 -27 61 -35 47
-40 -90 -32 -252 -115 -339 -173 -41 -28 -81 -51 -88 -51 -6 0 -35 23 -64 50
-29 28 -56 50 -60 50 -4 0 -31 22 -60 48 -28 27 -70 63 -92 81 -22 18 -50 42
-63 53 -13 11 -43 36 -67 56 -24 21 -51 44 -60 53 -9 8 -36 30 -61 49 -25 19
-54 43 -65 55 -12 11 -43 38 -70 61 -91 75 -141 90 -193 57 -65 -42 -92 -97
-72 -152 14 -38 41 -80 51 -81 4 0 24 -15 45 -34 22 -19 91 -78 154 -131 171
-144 203 -171 225 -192 11 -10 68 -58 127 -106 58 -49 109 -94 111 -101 3 -7
-15 -34 -39 -59 -24 -26 -44 -49 -44 -52 0 -5 -24 -36 -47 -60 -7 -8 -13 -16
-13 -18 0 -3 -17 -31 -39 -63 -105 -160 -194 -379 -208 -515 -4 -44 -3 -47 34
-75 21 -16 52 -37 70 -47 77 -42 191 -99 233 -114 25 -9 50 -20 55 -24 14 -11
174 -74 260 -104 152 -52 371 -97 550 -114 142 -14 458 -14 600 -1 158 15 384
58 427 81 10 5 27 9 39 9 11 0 35 6 52 14 18 8 41 16 52 19 39 11 131 45 180
66 28 12 59 26 70 31 41 17 220 105 225 110 3 3 23 14 45 25 22 11 45 24 50
28 6 4 42 28 80 53 85 56 135 102 135 125 0 23 -33 124 -64 193 -14 32 -26 64
-26 71 0 8 -3 15 -7 17 -5 2 -17 21 -28 43 -42 84 -106 183 -180 274 -26 33
-173 180 -205 206 -118 96 -225 166 -320 212 -89 43 -155 71 -174 74 -32 6
-28 23 10 42 128 63 302 207 385 317 18 25 36 47 39 50 10 8 84 132 102 170
15 32 24 53 56 132 6 15 21 67 33 115 19 75 22 116 22 268 0 183 -5 222 -54
374 -20 62 -119 257 -145 284 -13 14 -24 29 -24 33 0 10 -15 27 -134 147 -59
59 -111 107 -116 107 -5 0 -15 6 -22 13 -30 30 -276 157 -303 157 -9 0 -25 5
-36 11 -32 17 -116 36 -214 49 -109 15 -248 24 -255 16z m732 -783 c6 -7 18
-13 26 -13 17 0 78 -45 117 -85 73 -77 85 -127 85 -347 0 -97 -4 -179 -9 -182
-5 -3 -12 -22 -15 -41 -4 -19 -11 -35 -16 -35 -6 0 -10 -6 -10 -13 0 -11 -70
-89 -101 -112 -68 -50 -178 -56 -834 -52 -537 3 -573 4 -616 23 -94 39 -176
130 -200 220 -21 82 -23 317 -3 394 29 112 110 202 215 240 52 19 82 20 701
17 502 -1 650 -5 660 -14z"/>
<path d="M1722 2900 c-62 -28 -92 -80 -92 -159 0 -83 32 -138 94 -164 38 -16
46 -16 77 -3 60 25 109 100 109 166 0 39 -32 110 -61 136 -42 37 -81 44 -127
24z"/>
<path d="M2414 2899 c-75 -22 -117 -114 -94 -209 9 -39 22 -58 53 -85 57 -49
106 -45 170 15 31 29 32 32 32 117 0 79 -2 91 -25 117 -23 26 -78 57 -97 55
-4 0 -22 -5 -39 -10z"/>
</g>
</svg>
